<?xml version="1.0" encoding="utf-8"?>
<!-- Generator: Adobe Illustrator 18.1.0, SVG Export Plug-In . SVG Version: 6.00 Build 0)  -->
<!DOCTYPE svg PUBLIC "-//W3C//DTD SVG 1.1//EN" "http://www.w3.org/Graphics/SVG/1.1/DTD/svg11.dtd">
<svg version="1.1" id="Icons" xmlns="http://www.w3.org/2000/svg" xmlns:xlink="http://www.w3.org/1999/xlink" x="0px" y="0px"
	 viewBox="0 0 240 240" enable-background="new 0 0 240 240" xml:space="preserve">
<symbol  id="ic_x5F_chevronLeft_x0D__1_" viewBox="-12 -12 24 24">
	<g>
		<polygon points="3.4,4.6 2,6 -4,0 2,-6 3.4,-4.6 -1.2,0 		"/>
		<polygon fill="none" points="12,-12 -12,-12 -12,12 12,12 		"/>
	</g>
</symbol>
<symbol  id="ic_x5F_chevronRight_1_" viewBox="-12 -12 24 24">
	<g>
		<polygon points="-2,6 -3.4,4.6 1.2,0 -3.4,-4.6 -2,-6 4,0 		"/>
		<polygon fill="none" points="-12,12 -12,-12 12,-12 12,12 		"/>
	</g>
</symbol>
<symbol  id="ic_x5F_delete_x0D_" viewBox="-12 -12 24 24">
	<g>
		<path d="M-6-7c0-1.1,0.9-2,2-2h8c1.1,0,2,0.9,2,2V5H-6V-7z M6,8H3.5l-1,1h-5l-1-1H-6c-0.6,0-1-0.4-1-1V6H7v1C7,7.6,6.6,8,6,8z"/>
	</g>
	<polygon fill="none" points="12,-12 -12,-12 -12,12 12,12 	"/>
</symbol>
<symbol  id="ic_x5F_download" viewBox="-12 -12 24 24">
	<polygon fill="none" points="-12,12 -12,-12 12,-12 12,12 	"/>
	<path fill="#212121" d="M7,3H3v6h-6V3h-4l7-7L7,3z M-8-6v-3H8v3H-8z"/>
</symbol>
<symbol  id="ic_x5F_expandMore_1_" viewBox="-12 -12 24 24">
	<g>
		<polygon points="4.6,3.4 0,-1.2 -4.6,3.4 -6,2 0,-4 6,2 		"/>
		<polygon fill="none" points="-12,12 -12,-12 12,-12 12,12 		"/>
	</g>
</symbol>
<symbol  id="ic_x5F_share_x0D_" viewBox="-12 -12 24 24">
	<g>
		<path fill="#212121" d="M9,0L2,7V3C-5,2-8-3-9-8c2.5,3.5,6,5.1,11,5.1V-7L9,0z"/>
		<polygon fill="none" points="-12,12 -12,-12 12,-12 12,12 		"/>
	</g>
</symbol>
<symbol  id="ic_x5F_sort_x0D__3_" viewBox="-12 -12 24 24">
	<path d="M-9-6h6v3h-6V-6z M-9,7V4H9v3H-9z M-9-1H3v3H-9V-1z"/>
	<polygon fill="none" points="12,-12 -12,-12 -12,12 12,12 	"/>
</symbol>
<use xlink:href="#ic_x5F_sort_x0D__3_"  width="24" height="24" id="XMLID_16_" x="-12" y="-12" transform="matrix(0.9167 0 0 -0.9167 108 12)" overflow="visible"/>
<use xlink:href="#ic_x5F_chevronLeft_x0D__1_"  width="24" height="24" id="XMLID_15_" x="-12" y="-12" transform="matrix(1 0 0 -1 84 12)" overflow="visible"/>
<use xlink:href="#ic_x5F_chevronRight_1_"  width="24" height="24" id="XMLID_14_" x="-12" y="-12" transform="matrix(1 0 0 -1 36 12)" overflow="visible"/>
<use xlink:href="#ic_x5F_expandMore_1_"  width="24" height="24" id="XMLID_13_" x="-12" y="-12" transform="matrix(1 0 0 -1 60 12)" overflow="visible"/>
<g>
	<path d="M134.3,9.1l2.7-2.7c-1.2-1.1-2.8-1.8-4.6-1.9v3.8C133.1,8.2,133.8,8.6,134.3,9.1z"/>
	<path d="M128.3,12c0-1.9,1.5-3.5,3.3-3.7V4.5c-3.8,0.2-7.1,3.5-7.1,7.5c0,2.6,1.4,5,3.4,6.4l1.9-3.3
		C128.9,14.2,128.3,13.2,128.3,12z"/>
	<path d="M137.6,7L135,9.7c0.5,0.6,0.8,1.4,0.8,2.3c0,2.1-1.7,3.8-3.8,3.8c-0.5,0-1-0.1-1.5-0.3l-1.9,3.3c1,0.5,2.2,0.8,3.4,0.8
		c4.1,0,7.5-3.4,7.5-7.5C139.5,10.1,138.8,8.2,137.6,7z"/>
</g>
<g>
	<path d="M159.6,10.3c2.1,0,3.9,1.8,3.9,3.9s-1.8,3.9-3.9,3.9s-3.9-1.8-3.9-3.9C155.8,12.1,157.4,10.3,159.6,10.3z"/>
	<path d="M155.2,5.9c1.2,0,2.2,1,2.2,2.2s-1,2.2-2.2,2.2c-1.2,0-2.2-1-2.2-2.2S153.9,5.9,155.2,5.9z"/>
	<path d="M151.6,10.7c1.7,0,3.1,1.4,3.1,3.1s-1.4,3.1-3.1,3.1c-1.7,0-3.1-1.4-3.1-3.1C148.4,12.1,149.8,10.7,151.6,10.7z"/>
</g>
<g>
	<path d="M173,15h14v2h-14V15z"/>
	<path d="M173,11h14v2h-14V11z"/>
	<path d="M173,7h14v2h-14V7z"/>
</g>
<g id="ic_x5F_moreVert_2_">
	<rect x="192" fill="none" width="24" height="24"/>
	<path fill="#FFFFFF" d="M204,8c1.1,0,2-0.9,2-2s-0.9-2-2-2s-2,0.9-2,2S202.9,8,204,8z M204,10c-1.1,0-2,0.9-2,2s0.9,2,2,2
		s2-0.9,2-2S205,10,204,10z M204,16c-1.1,0-2,0.9-2,2s0.9,2,2,2s2-0.9,2-2S205,16,204,16z"/>
</g>
<g id="ic_x5F_moreVert_1_">
	<rect x="216" y="0" fill="none" width="24" height="24"/>
	<path d="M228,8c1.1,0,2-0.9,2-2s-0.9-2-2-2s-2,0.9-2,2S226.9,8,228,8z M228,10c-1.1,0-2,0.9-2,2s0.9,2,2,2s2-0.9,2-2S229,10,228,10
		z M228,16c-1.1,0-2,0.9-2,2s0.9,2,2,2s2-0.9,2-2S229,16,228,16z"/>
</g>
<g id="ic_x5F_work_x0D_">
	<g>
		<g>
			<path fill="#212121" d="M13.5,29.2h-3L9,30.8v0.8H6c-0.8,0-1.5,0.7-1.5,1.5v7.5C4.5,41.3,5.2,42,6,42h12c0.8,0,1.5-0.7,1.5-1.5
				V33c0-0.8-0.7-1.5-1.5-1.5h-3v-0.8L13.5,29.2z M13.5,31.5h-3v-0.8h3V31.5z"/>
		</g>
		<polygon fill="none" points="21,45 3,45 3,27 21,27 		"/>
	</g>
</g>
<use xlink:href="#ic_x5F_download"  width="24" height="24" id="XMLID_12_" x="-12" y="-12" transform="matrix(0.75 0 0 -0.75 36 36)" overflow="visible"/>
<use xlink:href="#ic_x5F_share_x0D_"  width="24" height="24" id="XMLID_11_" x="-12" y="-12" transform="matrix(0.75 0 0 -0.75 60 36)" overflow="visible"/>
<g id="ic_x5F_fullscreen_1_">
	<g>
		<polygon fill="#212121" points="86,29 86,31 89,31 89,34 91,34 91,29 		"/>
		<polygon fill="#212121" points="77,34 79,34 79,31 82,31 82,29 77,29 		"/>
		<polygon fill="#212121" points="89,41 86,41 86,43 91,43 91,38 89,38 		"/>
		<polygon fill="#212121" points="79,38 77,38 77,43 82,43 82,41 79,41 		"/>
	</g>
</g>
<g id="ic_x5F_close_6_">
	<polygon points="115,30.4 113.6,29 108,34.6 102.4,29 101,30.4 106.6,36 101,41.6 102.4,43 108,37.4 113.6,43 115,41.6 109.4,36 	
		"/>
</g>
<path d="M136.1,31c0.5,0,0.9,0.4,0.9,0.9v8.2c0,0.5-0.4,0.9-0.9,0.9h-8.2c-0.5,0-0.9-0.4-0.9-0.9v-8.2c0-0.5,0.4-0.9,0.9-0.9
	L136.1,31 M136.4,29h-8.8c-1.5,0-2.6,1.2-2.6,2.6v8.8c0,1.5,1.2,2.6,2.6,2.6h8.8c1.5,0,2.6-1.2,2.6-2.6v-8.8
	C139,30.2,137.8,29,136.4,29L136.4,29z"/>
<g id="checkbox_x5F_on_2_">
	<g>
		<polygon fill="#4285F4" points="162,31.7 160.7,31 154.5,38.9 150.9,36.5 150,37.6 154.9,41 		"/>
	</g>
</g>
<use xlink:href="#ic_x5F_delete_x0D_"  width="24" height="24" id="XMLID_10_" x="-12" y="-12" transform="matrix(0.75 0 0 -0.75 180 36)" overflow="visible"/>
<g>
	<circle fill="#4285F4" cx="12" cy="60" r="7"/>
	<g id="ic_x5F_sort_x0D__6_">
		<path fill="#FFFFFF" d="M8.8,62.1h2.1v-1H8.8V62.1z M8.8,57.4v1h6.3v-1H8.8z M8.8,60.3h4.2v-1H8.8V60.3z"/>
	</g>
</g>
<g>
	<circle fill="#4285F4" cx="36" cy="60" r="7"/>
	<g id="ic_x5F_sort_x0D__2_">
		<g>
			<path fill="#FFFFFF" d="M36.8,58.9l0.9-0.9c-0.4-0.4-1-0.6-1.6-0.7v1.3C36.4,58.6,36.6,58.7,36.8,58.9z"/>
			<path fill="#FFFFFF" d="M34.7,60c0-0.7,0.5-1.2,1.2-1.3v-1.3c-1.4,0.1-2.5,1.2-2.5,2.6c0,0.9,0.5,1.7,1.2,2.2l0.7-1.2
				C35,60.8,34.7,60.4,34.7,60z"/>
			<path fill="#FFFFFF" d="M38,58.1l-1,1c0.2,0.2,0.3,0.5,0.3,0.8c0,0.7-0.6,1.3-1.3,1.3c-0.2,0-0.4,0-0.5-0.1l-0.7,1.2
				c0.3,0.2,0.8,0.3,1.2,0.3c1.4,0,2.6-1.2,2.6-2.6C38.6,59.3,38.4,58.6,38,58.1z"/>
		</g>
	</g>
</g>
<g>
	<circle fill="#4285F4" cx="132" cy="60" r="7"/>
	<path fill="#FFFFFF" d="M136.3,60.7c-0.2-0.3-0.7-0.4-1.5-0.4c-0.3,0-0.5,0-0.8,0c-0.2-0.1-0.4-0.2-0.6-0.4c-0.4-0.3-0.8-0.9-1-1.7
		c0,0,0,0,0-0.1c0.2-0.9,0.4-1.9,0-2.3c-0.1-0.1-0.2-0.2-0.4-0.2h-0.2c-0.2,0-0.4,0.3-0.5,0.5c-0.2,0.9-0.1,1.3,0.1,2.1l0,0
		c-0.2,0.6-0.4,1.2-0.7,1.9c-0.2,0.4-0.4,0.8-0.6,1.2c-0.3,0.1-0.5,0.2-0.6,0.3c-0.8,0.5-1.1,1-1.2,1.4c0,0.1,0,0.2,0,0.3l0,0
		l0.3,0.2c0.1,0,0.2,0.1,0.3,0.1c0.5,0,1.1-0.6,1.9-2h0.1c0.7-0.2,1.5-0.4,2.6-0.5c0.6,0.3,1.4,0.5,1.9,0.5c0.3,0,0.5-0.1,0.6-0.2
		c0.1-0.1,0.2-0.3,0.2-0.4C136.4,60.9,136.3,60.8,136.3,60.7z M129,63.3L129,63.3L129,63.3C129,63.2,129,63.2,129,63.3
		c0-0.3,0.3-0.7,0.8-1.1c0.1-0.1,0.2-0.1,0.3-0.2l0,0l0,0C129.7,62.7,129.3,63.2,129,63.3z M132,56.3C132,56.2,132,56.2,132,56.3
		C132,56.2,132,56.2,132,56.3C132.1,56.2,132.1,56.2,132,56.3L132,56.3L132,56.3c0.2,0,0.2,0.2,0.1,0.6v0.1c0,0.1-0.1,0.3-0.1,0.5
		l0,0l0,0l0,0C131.9,56.9,131.9,56.5,132,56.3z M131.2,61.2L131.2,61.2L131.2,61.2C131.1,61.2,131.1,61.2,131.2,61.2
		c0-0.2,0.1-0.4,0.3-0.7c0.3-0.6,0.5-1.1,0.7-1.6c0.3,0.6,0.6,1.1,1,1.4c0.1,0.1,0.2,0.1,0.3,0.2C132.8,60.7,132,60.9,131.2,61.2z
		 M136,61.1C135.9,61.1,135.9,61.2,136,61.1L136,61.1c-0.1,0-0.2,0-0.2,0c-0.3,0-0.8-0.1-1.2-0.3l0,0l0,0h0.1
		C135.6,60.8,135.9,61,136,61.1C135.9,61,135.9,61.1,136,61.1L136,61.1L136,61.1z"/>
</g>
<g>
	<circle fill="#4285F4" cx="60" cy="60" r="7"/>
	<g id="ic_x5F_sort_x0D__1_">
		<g>
			<path fill="#FFFFFF" d="M61.5,59.3c0.9,0,1.7,0.8,1.7,1.7s-0.8,1.7-1.7,1.7s-1.7-0.8-1.7-1.7C59.9,60,60.6,59.3,61.5,59.3z"/>
			<path fill="#FFFFFF" d="M59.7,57.3c0.5,0,0.9,0.4,0.9,0.9c0,0.5-0.4,0.9-0.9,0.9s-0.9-0.4-0.9-0.9C58.7,57.7,59.1,57.3,59.7,57.3
				z"/>
			<path fill="#FFFFFF" d="M58.1,59.4c0.7,0,1.3,0.6,1.3,1.3S58.8,62,58.1,62c-0.7,0-1.3-0.6-1.3-1.3S57.4,59.4,58.1,59.4z"/>
		</g>
	</g>
</g>
<g>
	<g>
		<circle fill="#FFFFFF" cx="84" cy="60" r="7"/>
		<path d="M84,54c3.3,0,6,2.7,6,6c0,3.3-2.7,6-6,6s-6-2.7-6-6C78,56.6,80.7,54,84,54 M84,53c-3.8,0-7,3.1-7,7s3.1,7,7,7s7-3.1,7-7
			S87.8,53,84,53L84,53z"/>
	</g>
	<g>
		<path d="M85.6,63l-0.1,0.4c-0.3,0.1-0.6,0.2-0.8,0.3c-0.2,0.1-0.4,0.1-0.7,0.1c-0.4,0-0.7-0.1-0.9-0.3c-0.2-0.2-0.3-0.4-0.3-0.7
			c0-0.1,0-0.2,0-0.3s0-0.3,0.1-0.4l0.4-1.4c0-0.1,0.1-0.3,0.1-0.4s0-0.2,0-0.3c0-0.2,0-0.3-0.1-0.4c-0.1-0.1-0.2-0.1-0.4-0.1
			c-0.1,0-0.2,0-0.3,0c-0.1,0-0.2,0.1-0.3,0.1l0.1-0.4c0.3-0.1,0.5-0.2,0.8-0.3c0.2-0.1,0.5-0.1,0.7-0.1c0.4,0,0.7,0.1,0.9,0.3
			c0.2,0.2,0.3,0.4,0.3,0.7c0,0.1,0,0.2,0,0.3c0,0.1,0,0.3-0.1,0.4l-0.4,1.4c0,0.1-0.1,0.2-0.1,0.4c0,0.1,0,0.3,0,0.3
			c0,0.2,0,0.3,0.1,0.4c0.1,0.1,0.2,0.1,0.4,0.1c0.1,0,0.2,0,0.3-0.1C85.5,63,85.5,63,85.6,63z M85.7,56.9c0,0.2-0.1,0.5-0.3,0.6
			c-0.2,0.2-0.4,0.3-0.7,0.3s-0.5-0.1-0.7-0.3s-0.3-0.4-0.3-0.6c0-0.2,0.1-0.5,0.3-0.6c0.2-0.1,0.4-0.3,0.7-0.3
			c0.3,0,0.5,0.1,0.7,0.3C85.6,56.5,85.7,56.7,85.7,56.9z"/>
	</g>
</g>
<g>
	<g id="ic_x5F_close_2_">
		<polygon points="110.5,57.9 110,57.4 108,59.4 106,57.4 105.5,57.9 107.5,60 105.5,61.9 106,62.5 108,60.5 110,62.5 110.5,61.9 
			108.5,60 		"/>
	</g>
	<path d="M108,54c3.3,0,6,2.7,6,6c0,3.3-2.7,6-6,6s-6-2.7-6-6C102,56.6,104.7,54,108,54 M108,53c-3.8,0-7,3.1-7,7s3.1,7,7,7
		c3.8,0,7-3.1,7-7S111.9,53,108,53L108,53z"/>
</g>
<g id="ic_x5F_close_1_">
	<polygon fill="#FFFFFF" points="211,30.4 209.6,29 204,34.6 198.4,29 197,30.4 202.6,36 197,41.6 198.4,43 204,37.4 209.6,43 
		211,41.6 205.4,36 	"/>
</g>
<use xlink:href="#ic_x5F_chevronRight_1_"  width="24" height="24" id="XMLID_1_" x="-12" y="-12" transform="matrix(4.489700e-11 -1 -1 -4.489700e-11 12 12)" overflow="visible"/>
<g id="ic_x5F_chevronLeft_x0D__1">
	<g>
		<polygon fill="#FFFFFF" points="87.4,79.4 86,78 80,84 86,90 87.4,88.6 82.8,84 		"/>
	</g>
</g>
<g id="ic_x5F_chevronRight_1_1_">
	<g>
		<polygon fill="#FFFFFF" points="34,78 32.6,79.4 37.2,84 32.6,88.6 34,90 40,84 		"/>
	</g>
</g>
<g id="ic_x5F_expandMore_1">
	<g>
		<polygon fill="#FFFFFF" points="64.6,80.6 60,85.2 55.4,80.6 54,82 60,88 66,82 		"/>
	</g>
</g>
<g id="ic_x5F_chevronRight_1">
	<g>
		<polygon fill="#FFFFFF" points="6,86 7.4,87.4 12,82.8 16.6,87.4 18,86 12,80 		"/>
	</g>
</g>
<path fill="#222222" d="M228,41l-7.5-10h15L228,41z"/>
<g>
	<path fill="#A3A3A3" d="M156,53.5c3.6,0,6.5,2.9,6.5,6.5s-2.9,6.5-6.5,6.5s-6.5-2.9-6.5-6.5S152.4,53.5,156,53.5 M156,52.5
		c-4.1,0-7.5,3.4-7.5,7.5s3.4,7.5,7.5,7.5s7.5-3.4,7.5-7.5S160.1,52.5,156,52.5L156,52.5z"/>
	<g>
		<path fill="#A3A3A3" d="M157.3,62.9l-0.1,0.4c-0.3,0.1-0.6,0.2-0.7,0.3c-0.2,0.1-0.4,0.1-0.6,0.1c-0.4,0-0.7-0.1-0.9-0.3
			c-0.2-0.2-0.3-0.4-0.3-0.7c0-0.1,0-0.2,0-0.3s0-0.2,0.1-0.4l0.4-1.4c0-0.1,0.1-0.3,0.1-0.4c0-0.1,0-0.2,0-0.3c0-0.2,0-0.3-0.1-0.4
			s-0.2-0.1-0.4-0.1c-0.1,0-0.2,0-0.3,0s-0.2,0.1-0.3,0.1l0.1-0.4c0.3-0.1,0.5-0.2,0.7-0.3c0.2-0.1,0.4-0.1,0.7-0.1
			c0.4,0,0.7,0.1,0.9,0.3s0.3,0.4,0.3,0.7c0,0.1,0,0.2,0,0.3c0,0.1,0,0.3-0.1,0.4l-0.4,1.4c0,0.1-0.1,0.2-0.1,0.4c0,0.1,0,0.2,0,0.3
			c0,0.2,0,0.3,0.1,0.4c0.1,0.1,0.2,0.1,0.4,0.1c0.1,0,0.2,0,0.3,0C157.1,62.9,157.2,62.9,157.3,62.9z M157.4,57.2
			c0,0.2-0.1,0.4-0.3,0.6c-0.2,0.2-0.4,0.2-0.6,0.2s-0.5-0.1-0.6-0.2c-0.2-0.2-0.3-0.4-0.3-0.6s0.1-0.4,0.3-0.6
			c0.2-0.2,0.4-0.3,0.6-0.3s0.5,0.1,0.6,0.3C157.3,56.8,157.4,57,157.4,57.2z"/>
	</g>
</g>
<g>
	<path fill="#FDC02F" d="M180,53.5c3.6,0,6.5,2.9,6.5,6.5s-2.9,6.5-6.5,6.5s-6.5-2.9-6.5-6.5S176.4,53.5,180,53.5 M180,52.5
		c-4.1,0-7.5,3.4-7.5,7.5s3.4,7.5,7.5,7.5s7.5-3.4,7.5-7.5S184.1,52.5,180,52.5L180,52.5z"/>
	<g>
		<rect x="179.5" y="56.2" fill="#FDC02F" width="1" height="5"/>
		<rect x="179.5" y="62.8" fill="#FDC02F" width="1" height="1"/>
	</g>
</g>
<g>
	<path fill="#FC572F" d="M204,53.5c3.6,0,6.5,2.9,6.5,6.5s-2.9,6.5-6.5,6.5s-6.5-2.9-6.5-6.5S200.4,53.5,204,53.5 M204,52.5
		c-4.1,0-7.5,3.4-7.5,7.5s3.4,7.5,7.5,7.5s7.5-3.4,7.5-7.5S208.1,52.5,204,52.5L204,52.5z"/>
	<g>
		<rect x="203.5" y="56.2" fill="#FC572F" width="1" height="5"/>
		<rect x="203.5" y="62.8" fill="#FC572F" width="1" height="1"/>
	</g>
</g>
<circle fill="#F2F5F7" cx="228" cy="60" r="7"/>
<g id="ic_x5F_close_3_">
	<polygon fill="#919394" points="230.5,58 230,57.5 228,59.5 226,57.5 225.5,58 227.5,60 225.5,61.9 226,62.5 228,60.5 230,62.5 
		230.5,61.9 228.5,60 	"/>
</g>
</svg>
