<?xml version="1.0" encoding="utf-8"?>
<!-- Generator: Adobe Illustrator 16.0.0, SVG Export Plug-In . SVG Version: 6.00 Build 0)  -->
<!DOCTYPE svg PUBLIC "-//W3C//DTD SVG 1.1//EN" "http://www.w3.org/Graphics/SVG/1.1/DTD/svg11.dtd">
<svg version="1.1" id="Layer_1" xmlns="http://www.w3.org/2000/svg" xmlns:xlink="http://www.w3.org/1999/xlink" x="0px" y="0px"
	 width="1051px" height="128px" viewBox="0 0 1051 128" enable-background="new 0 0 1051 128" xml:space="preserve">
<g>
	<path fill="#E5B94D" d="M95.535,94.126H79.468c-1.62,0-3.028-1.112-3.404-2.688l-3.891-16.313c-0.249-1.041-0.007-2.14,0.657-2.98
		s1.676-1.331,2.747-1.331h23.847c1.071,0,2.083,0.49,2.747,1.331c0.663,0.841,0.906,1.938,0.657,2.98l-3.889,16.313
		C98.564,93.014,97.155,94.126,95.535,94.126z M82.231,87.126h10.54l2.22-9.313H80.01L82.231,87.126z"/>
</g>
<g>
	<path fill="#E5B94D" d="M91.824,107.685h-8.646c-1.562,0-2.936-1.036-3.365-2.538l-1.601-5.601
		c-0.302-1.057-0.091-2.192,0.571-3.069c0.661-0.877,1.695-1.393,2.794-1.393h11.847c1.099,0,2.133,0.516,2.794,1.393
		c0.661,0.876,0.873,2.013,0.571,3.068l-1.6,5.601C94.761,106.648,93.387,107.685,91.824,107.685z"/>
</g>
<g>
	<path fill="#E5B94D" d="M78.111,78.354c-1.772,0-3.293-1.342-3.477-3.145c-0.453-4.43-3.035-14.979-5.639-23.034
		c-0.623-1.802-2.729-8.141-2.729-11.24c0-11.708,9.525-21.232,21.233-21.232s21.232,9.525,21.232,21.232
		c0,3.1-2.106,9.434-2.752,11.302c-2.579,7.983-5.16,18.533-5.615,22.971c-0.197,1.923-1.912,3.33-3.838,3.125
		c-1.923-0.196-3.322-1.915-3.125-3.838c0.503-4.919,3.168-15.9,5.94-24.478c1.161-3.364,2.39-7.748,2.39-9.082
		c0-7.848-6.385-14.232-14.232-14.232c-7.849,0-14.233,6.385-14.233,14.232c0,1.337,1.229,5.724,2.367,9.021
		c2.797,8.649,5.461,19.629,5.963,24.542c0.197,1.923-1.203,3.641-3.125,3.837C78.352,78.349,78.23,78.354,78.111,78.354z"/>
</g>
<g>
	<path fill="#E5B94D" d="M90.874,46.899c-1.35,0-2.931-0.256-4.188-0.714c-1.42-0.517-3.165-0.62-3.74-0.465l-1.875,0.505
		c-0.801,0.217-1.623-0.258-1.838-1.058s0.258-1.623,1.059-1.838l1.873-0.505c1.516-0.409,3.988-0.024,5.549,0.543
		c1.346,0.491,3.277,0.644,4.102,0.453l2.182-0.504c0.808-0.186,1.612,0.317,1.8,1.124c0.187,0.807-0.317,1.613-1.124,1.799
		l-2.182,0.504C92.03,46.849,91.476,46.899,90.874,46.899z"/>
</g>
<g>
	<path fill="#E5B94D" d="M83.762,63.685c-0.704,0-1.332-0.499-1.471-1.217l-2.138-11.091c-0.157-0.813,0.376-1.6,1.188-1.756
		c0.812-0.162,1.6,0.375,1.757,1.189l2.138,11.091c0.157,0.813-0.375,1.6-1.189,1.756C83.951,63.676,83.855,63.685,83.762,63.685z"
		/>
</g>
<g>
	<path fill="#E5B94D" d="M91.228,63.685c-0.095,0-0.189-0.009-0.286-0.028c-0.813-0.157-1.346-0.943-1.188-1.756l2.138-11.091
		c0.156-0.814,0.938-1.348,1.757-1.189c0.813,0.157,1.346,0.943,1.188,1.756l-2.138,11.091
		C92.561,63.186,91.932,63.685,91.228,63.685z"/>
</g>
<g>
	<path fill="#FA5969" d="M266.209,92.009c-15.444,0-28.01-12.564-28.01-28.009c0-15.445,12.565-28.011,28.01-28.011
		S294.218,48.555,294.218,64C294.218,79.444,281.653,92.009,266.209,92.009z M266.209,42.989c-11.585,0-21.01,9.425-21.01,21.011
		c0,11.584,9.425,21.009,21.01,21.009c11.584,0,21.009-9.425,21.009-21.009C287.218,52.415,277.793,42.989,266.209,42.989z"/>
</g>
<g>
	<path fill="#FA5969" d="M266.209,42.989c-1.933,0-3.5-1.567-3.5-3.5V21.09c0-1.933,1.567-3.5,3.5-3.5s3.5,1.567,3.5,3.5v18.399
		C269.709,41.422,268.142,42.989,266.209,42.989z"/>
</g>
<g>
	<path fill="#FA5969" d="M266.209,110.409c-1.933,0-3.5-1.567-3.5-3.5v-18.4c0-1.933,1.567-3.5,3.5-3.5s3.5,1.567,3.5,3.5v18.4
		C269.709,108.842,268.142,110.409,266.209,110.409z"/>
</g>
<g>
	<path fill="#FA5969" d="M309.118,67.5h-18.4c-1.933,0-3.5-1.567-3.5-3.5c0-1.933,1.567-3.5,3.5-3.5h18.4c1.933,0,3.5,1.567,3.5,3.5
		C312.618,65.933,311.051,67.5,309.118,67.5z"/>
</g>
<g>
	<path fill="#FA5969" d="M241.699,67.5h-18.4c-1.933,0-3.5-1.567-3.5-3.5c0-1.933,1.567-3.5,3.5-3.5h18.4c1.933,0,3.5,1.567,3.5,3.5
		C245.199,65.933,243.632,67.5,241.699,67.5z"/>
</g>
<g>
	<path fill="#FA5969" d="M283.54,50.169c-0.896,0-1.791-0.342-2.475-1.025c-1.367-1.367-1.367-3.583,0-4.95l8.354-8.354
		c1.367-1.366,3.582-1.366,4.949,0c1.367,1.367,1.367,3.583,0,4.95l-8.354,8.354C285.331,49.827,284.436,50.169,283.54,50.169z"/>
</g>
<g>
	<path fill="#FA5969" d="M240.524,93.184c-0.896,0-1.791-0.342-2.475-1.025c-1.367-1.366-1.367-3.583,0-4.949l8.353-8.353
		c1.367-1.367,3.582-1.367,4.949,0c1.367,1.366,1.367,3.583,0,4.949l-8.353,8.353C242.315,92.842,241.42,93.184,240.524,93.184z"/>
</g>
<g>
	<path fill="#FA5969" d="M291.893,93.184c-0.896,0-1.791-0.342-2.475-1.025l-8.353-8.353c-1.367-1.366-1.367-3.583,0-4.949
		c1.367-1.367,3.582-1.367,4.949,0l8.353,8.353c1.367,1.366,1.367,3.583,0,4.949C293.684,92.842,292.788,93.184,291.893,93.184z"/>
</g>
<g>
	<path fill="#FA5969" d="M248.876,50.171c-0.896,0-1.792-0.342-2.476-1.025l-8.352-8.354c-1.366-1.367-1.366-3.583,0.001-4.95
		s3.583-1.367,4.95,0l8.352,8.354c1.366,1.367,1.366,3.583-0.001,4.95C250.667,49.829,249.771,50.171,248.876,50.171z"/>
</g>
<g>
	<path fill="#51AFE7" d="M440.184,55.496c-1.933,0-3.5-1.567-3.5-3.5V21.09c0-1.933,1.567-3.5,3.5-3.5s3.5,1.567,3.5,3.5v30.905
		C443.684,53.929,442.116,55.496,440.184,55.496z"/>
</g>
<g>
	<path fill="#51AFE7" d="M440.184,110.41c-1.933,0-3.5-1.567-3.5-3.5V76.008c0-1.933,1.567-3.5,3.5-3.5s3.5,1.567,3.5,3.5v30.902
		C443.684,108.843,442.116,110.41,440.184,110.41z"/>
</g>
<g>
	<path fill="#51AFE7" d="M483.094,67.502h-29.046c-1.933,0-3.5-1.567-3.5-3.5s1.567-3.5,3.5-3.5h29.046c1.933,0,3.5,1.567,3.5,3.5
		S485.026,67.502,483.094,67.502z"/>
</g>
<g>
	<path fill="#51AFE7" d="M426.964,67.502h-29.689c-1.933,0-3.5-1.567-3.5-3.5s1.567-3.5,3.5-3.5h29.689c1.933,0,3.5,1.567,3.5,3.5
		S428.896,67.502,426.964,67.502z"/>
</g>
<g>
	<path fill="#51AFE7" d="M457.516,50.17c-0.896,0-1.791-0.342-2.475-1.025c-1.367-1.367-1.367-3.583,0-4.95l8.354-8.354
		c1.367-1.366,3.582-1.366,4.949,0c1.367,1.367,1.367,3.583,0,4.95l-8.354,8.354C459.307,49.829,458.411,50.17,457.516,50.17z"/>
</g>
<g>
	<path fill="#51AFE7" d="M414.5,93.186c-0.896,0-1.791-0.342-2.475-1.025c-1.367-1.366-1.367-3.582,0-4.949l8.353-8.354
		c1.365-1.367,3.582-1.367,4.949,0c1.367,1.366,1.367,3.582,0,4.949l-8.353,8.354C416.292,92.844,415.396,93.186,414.5,93.186z"/>
</g>
<g>
	<path fill="#51AFE7" d="M465.868,93.186c-0.896,0-1.792-0.342-2.475-1.025l-8.353-8.354c-1.367-1.367-1.367-3.583,0-4.949
		c1.367-1.367,3.584-1.367,4.949,0l8.353,8.354c1.367,1.367,1.367,3.583,0,4.949C467.659,92.844,466.764,93.186,465.868,93.186z"/>
</g>
<g>
	<path fill="#51AFE7" d="M422.852,50.172c-0.896,0-1.792-0.342-2.476-1.026l-8.352-8.355c-1.366-1.367-1.366-3.583,0.001-4.95
		c1.369-1.366,3.585-1.366,4.95,0.001l8.352,8.355c1.366,1.367,1.366,3.583-0.001,4.95
		C424.643,49.831,423.747,50.172,422.852,50.172z"/>
</g>
<g>
	<path fill="#51AFE7" d="M440.184,42.611c-0.928,0-1.818-0.369-2.475-1.025l-13.22-13.22c-1.367-1.367-1.367-3.583,0-4.95
		c1.367-1.366,3.582-1.366,4.949,0l10.745,10.745l10.746-10.747c1.365-1.367,3.582-1.367,4.949,0c1.367,1.367,1.367,3.583,0,4.95
		l-13.221,13.222C442.002,42.242,441.112,42.611,440.184,42.611z"/>
</g>
<g>
	<path fill="#51AFE7" d="M426.964,105.611c-0.896,0-1.791-0.342-2.475-1.025c-1.367-1.366-1.367-3.582,0-4.949l13.22-13.221
		c1.312-1.312,3.636-1.313,4.949,0l13.221,13.221c1.367,1.366,1.367,3.583,0,4.949c-1.367,1.367-3.582,1.367-4.949,0l-10.746-10.745
		l-10.745,10.745C428.756,105.27,427.859,105.611,426.964,105.611z"/>
</g>
<g>
	<path fill="#51AFE7" d="M478.295,80.721c-0.896,0-1.791-0.342-2.475-1.025l-13.222-13.22c-1.367-1.367-1.367-3.583,0-4.95
		l13.219-13.221c1.365-1.367,3.582-1.367,4.949,0c1.367,1.367,1.367,3.583,0,4.95L470.022,64l10.747,10.746
		c1.367,1.366,1.367,3.582,0,4.949C480.087,80.379,479.19,80.721,478.295,80.721z"/>
</g>
<g>
	<path fill="#51AFE7" d="M402.073,80.721c-0.896,0-1.791-0.342-2.475-1.024c-1.367-1.367-1.367-3.583-0.001-4.95l10.745-10.747
		l-10.744-10.744c-1.367-1.367-1.367-3.583,0-4.95c1.367-1.366,3.582-1.366,4.949,0l13.219,13.219
		c1.367,1.367,1.367,3.583,0.001,4.949l-13.219,13.223C403.865,80.379,402.969,80.721,402.073,80.721z"/>
</g>
<g>
	<path fill="#51AFE7" d="M447.117,79.508h-13.866c-1.251,0-2.406-0.667-3.031-1.75l-6.931-12.007c-0.625-1.083-0.625-2.417,0-3.5
		l6.931-12.006c0.625-1.083,1.78-1.75,3.031-1.75h13.866c1.251,0,2.406,0.667,3.031,1.75l6.931,12.006
		c0.625,1.083,0.625,2.417,0,3.5l-6.931,12.007C449.523,78.841,448.368,79.508,447.117,79.508z M435.271,72.508h9.825l4.91-8.506
		l-4.91-8.506h-9.825l-4.91,8.506L435.271,72.508z"/>
</g>
<g>
	<path fill="#7CC855" d="M634.396,88.486h-34.004c-1.765,0-3.254-1.314-3.473-3.065l-5.242-41.914l-6.913-9.479
		c-0.776-1.064-0.889-2.474-0.292-3.648c0.598-1.174,1.803-1.914,3.12-1.914h53.203c1.001,0,1.955,0.429,2.619,1.178
		c0.664,0.749,0.976,1.747,0.855,2.741l-6.399,53.021C637.659,87.164,636.167,88.486,634.396,88.486z M603.482,81.486h27.812
		l5.554-46.021h-42.371l3.39,4.648c0.35,0.479,0.571,1.039,0.645,1.627L603.482,81.486z"/>
</g>
<g>
	<path fill="#7CC855" d="M640.815,112.645c-0.005,0-0.012,0-0.02,0h-46.803c-1.052,0-2.047-0.473-2.712-1.287
		c-0.664-0.814-0.928-1.885-0.717-2.915l4.8-23.453c0.333-1.628,1.767-2.798,3.429-2.798h37.203c1.662,0,3.096,1.17,3.429,2.798
		l4.725,23.087c0.108,0.337,0.166,0.695,0.166,1.068C644.315,111.077,642.749,112.645,640.815,112.645z M598.282,105.645h38.225
		l-3.367-16.453h-31.49L598.282,105.645z"/>
</g>
<g>
	<path fill="#7CC855" d="M609.329,50.754h-12.792c-1.933,0-3.5-1.567-3.5-3.5s1.567-3.5,3.5-3.5h12.792c1.933,0,3.5,1.567,3.5,3.5
		S611.262,50.754,609.329,50.754z"/>
</g>
<g>
	<path fill="#7CC855" d="M612.529,63.977h-12.793c-1.933,0-3.5-1.567-3.5-3.5s1.567-3.5,3.5-3.5h12.793c1.933,0,3.5,1.567,3.5,3.5
		S614.462,63.977,612.529,63.977z"/>
</g>
<g>
	<path fill="#7CC855" d="M612.529,77.199h-12.793c-1.933,0-3.5-1.567-3.5-3.5s1.567-3.5,3.5-3.5h12.793c1.933,0,3.5,1.567,3.5,3.5
		S614.462,77.199,612.529,77.199z"/>
</g>
<g>
	<path fill="#7CC855" d="M651.729,77.457h-15.551c-0.99,0-1.934-0.419-2.598-1.154c-0.663-0.734-0.984-1.717-0.884-2.701
		l2.892-28.305c0.182-1.786,1.687-3.145,3.481-3.145h12.659c1.933,0,3.5,1.567,3.5,3.5v28.305
		C655.229,75.89,653.661,77.457,651.729,77.457z M640.054,70.457h8.175V49.152h-5.998L640.054,70.457z"/>
</g>
<path fill="#7CC855" d="M609.337,93.967c-2.347,0-4.249,1.904-4.249,4.25c0,2.348,1.902,4.25,4.249,4.25s4.248-1.902,4.248-4.25
	C613.585,95.871,611.684,93.967,609.337,93.967L609.337,93.967z"/>
<path fill="#7CC855" d="M625.348,93.967c-2.347,0-4.248,1.904-4.248,4.25c0,2.348,1.901,4.25,4.248,4.25s4.248-1.902,4.248-4.25
	C629.596,95.871,627.694,93.967,625.348,93.967L625.348,93.967z"/>
<g>
	<path fill="#7CC855" d="M638.531,35.59c-0.004,0-0.012,0.001-0.02,0h-42.659c-1.167,0-2.257-0.582-2.907-1.551
		c-0.649-0.969-0.773-2.198-0.331-3.278l3.884-9.467c0.539-1.313,1.818-2.171,3.238-2.171h36.26c1.587,0,2.975,1.067,3.383,2.601
		l2.42,9.108c0.15,0.39,0.232,0.814,0.232,1.257C642.031,34.023,640.465,35.59,638.531,35.59z M601.071,28.59h32.889l-0.655-2.467
		h-31.221L601.071,28.59z"/>
</g>
<g>
	<path fill="#7CC855" d="M623.994,25.989h-12.8c-1.933,0-3.5-1.567-3.5-3.5v-6.131c0-1.933,1.567-3.5,3.5-3.5h12.8
		c1.933,0,3.5,1.567,3.5,3.5v6.131C627.494,24.422,625.927,25.989,623.994,25.989z"/>
</g>
<g>
	<path fill="#6B1ABA" d="M841.336,92.9H732.664c-1.933,0-3.5-1.567-3.5-3.5V28.306c0-1.933,1.567-3.5,3.5-3.5h108.672
		c1.933,0,3.5,1.567,3.5,3.5V89.4C844.836,91.333,843.269,92.9,841.336,92.9z M736.164,85.9h101.672V31.806H736.164V85.9z"/>
</g>
<g>
	<path fill="#6B1ABA" d="M787,106.807c-2.485,0-4.5-2.015-4.5-4.5V90.669c0-2.485,2.015-4.5,4.5-4.5s4.5,2.015,4.5,4.5v11.638
		C791.5,104.792,789.485,106.807,787,106.807z"/>
</g>
<rect x="732.664" y="82.038" fill="#6B1ABA" width="108.672" height="7.362"/>
<rect x="761.733" y="102.307" fill="#6B1ABA" width="50.534" height="4.534"/>
<g>
	<path fill="#AAAAAA" d="M996.143,103.781h-65.292c-0.929,0-1.819-0.369-2.476-1.025l-11.758-11.763
		c-0.656-0.656-1.024-1.547-1.024-2.475V39.48c0-0.928,0.369-1.819,1.025-2.475l11.764-11.762c0.656-0.656,1.547-1.025,2.475-1.025
		h65.281c0.928,0,1.817,0.368,2.474,1.024l11.771,11.762c0.657,0.656,1.026,1.547,1.026,2.476v49.038
		c0,0.929-0.369,1.818-1.025,2.476l-11.766,11.763C997.961,103.413,997.07,103.781,996.143,103.781z M932.301,96.781h62.393
		l9.715-9.713V40.931l-9.72-9.712h-62.383l-9.713,9.711v46.139L932.301,96.781z"/>
</g>
<rect x="943.361" y="39.985" fill="#AAAAAA" width="8.278" height="28.495"/>
<rect x="975.361" y="39.985" fill="#AAAAAA" width="8.278" height="28.495"/>
<path fill="#AAAAAA" d="M970.786,80.49c0,2.984,0.047,6.893,0.047,6.893H956.2c0,0,0.011-2.885,0.011-6.893s3.278-7.287,7.288-7.287
	C967.508,73.203,970.786,76.482,970.786,80.49z"/>
</svg>
